<svg width="18" height="18" viewBox="0 0 18 18" fill="#5142FC" xmlns="http://www.w3.org/2000/svg">
<path d="M17.9912 14.8704L15.5493 1.02157C15.4931 0.702899 15.1893 0.490243 14.8705 0.546297L1.02166 2.98821C0.702987 3.04438 0.490175 3.34829 0.546346 3.66696L2.98826 17.5158C3.01525 17.6689 3.10193 17.8049 3.22923 17.8941C3.32841 17.9635 3.44587 18 3.56533 18C3.59919 18 3.63326 17.9971 3.66704 17.9911L17.5159 15.5492C17.6689 15.5223 17.805 15.4356 17.8941 15.3083C17.9833 15.181 18.0182 15.0235 17.9912 14.8704ZM3.66845 7.8763C3.61228 7.55763 3.82509 7.25372 4.14376 7.19755L13.3764 5.56958C13.6953 5.51341 13.999 5.72618 14.0552 6.04485C14.1113 6.36352 13.8985 6.66743 13.5798 6.7236L4.34724 8.35161C4.31282 8.35767 4.27857 8.3606 4.24482 8.3606C3.96579 8.3606 3.71857 8.16059 3.66845 7.8763ZM11.3163 11.8826L5.16122 12.9679C5.12681 12.974 5.09255 12.9769 5.0588 12.9769C4.77978 12.9769 4.53255 12.7769 4.48243 12.4926C4.42626 12.1739 4.63907 11.87 4.95775 11.8138L11.1128 10.7285C11.4317 10.6723 11.7354 10.8851 11.7916 11.2038C11.8477 11.5225 11.6349 11.8264 11.3163 11.8826ZM13.9868 9.03177L4.75419 10.6597C4.71978 10.6658 4.68552 10.6687 4.65177 10.6687C4.37275 10.6687 4.12552 10.4687 4.0754 10.1844C4.01923 9.86575 4.23204 9.56184 4.55071 9.50567L13.7833 7.8777C14.1022 7.82153 14.4059 8.03431 14.4621 8.35298C14.5183 8.67169 14.3055 8.97559 13.9868 9.03177Z" fill="#5142FC"/>
</svg>
