<svg width="24" height="21" viewBox="0 0 24 21" fill="none" xmlns="http://www.w3.org/2000/svg">
<path fill-rule="evenodd" clip-rule="evenodd" d="M18.9227 8.01782H23.104C23.5988 8.01782 24 8.39807 24 8.86713V11.8195C23.9942 12.2862 23.5964 12.6633 23.104 12.6688H19.0187C17.8257 12.684 16.7826 11.9098 16.512 10.8084C16.3765 10.1247 16.5667 9.41917 17.0317 8.88093C17.4966 8.34269 18.1888 8.02676 18.9227 8.01782ZM19.1039 11.1219H19.4986C20.0052 11.1219 20.4159 10.7326 20.4159 10.2524C20.4159 9.77217 20.0052 9.38287 19.4986 9.38287H19.1039C18.8616 9.38017 18.6282 9.46952 18.4559 9.63098C18.2835 9.79245 18.1866 10.0126 18.1866 10.2423C18.1865 10.7242 18.5956 11.1164 19.1039 11.1219Z" fill="#F9F9FA" fill-opacity="0.4"/>
<path d="M18.9227 6.27877H24C24 2.31536 21.5573 0 17.4187 0H6.58133C2.44267 0 0 2.31536 0 6.22821V14.7718C0 18.6846 2.44267 21 6.58133 21H17.4187C21.5573 21 24 18.6846 24 14.7718V14.4078H18.9227C16.5662 14.4078 14.656 12.5971 14.656 10.3635C14.656 8.1299 16.5662 6.31921 18.9227 6.31921V6.27877Z" fill="white"/>
<path d="M12.4587 6.27884H5.6854C5.17705 6.27331 4.76803 5.8811 4.76807 5.39921C4.77391 4.92294 5.18291 4.53976 5.6854 4.53979H12.4587C12.9654 4.53979 13.3761 4.92909 13.3761 5.40932C13.3761 5.88955 12.9654 6.27884 12.4587 6.27884Z" fill="#948BFB"/>
</svg>
